<?xml version="1.0" standalone="no"?><!DOCTYPE svg PUBLIC "-//W3C//DTD SVG 1.1//EN" "http://www.w3.org/Graphics/SVG/1.1/DTD/svg11.dtd"><svg class="icon" width="32px" height="32.00px" viewBox="0 0 1024 1024" version="1.1" xmlns="http://www.w3.org/2000/svg"><path fill="#ffffff" d="M844.405 567.557l-63.402-8.73a332.412 332.412 0 0 0 2.756-60.013l63.938-2.841a396.812 396.812 0 0 1-3.292 71.584z"  /><path fill="#ffffff" d="M456.15 905.575c-52.897 0-104.229-10.367-152.57-30.813-46.675-19.742-88.587-47.998-124.572-83.982s-64.24-77.896-83.982-124.572c-20.446-48.341-30.813-99.672-30.813-152.569 0-52.897 10.367-104.229 30.813-152.57 19.742-46.675 47.998-88.587 83.982-124.572s77.896-64.24 124.572-83.982c48.341-20.446 99.673-30.813 152.57-30.813 101.61 0 197.945 38.722 271.257 109.033 73.085 70.093 115.805 164.291 120.289 265.24l-63.938 2.84C775.96 323.235 632.057 185.7 456.15 185.7c-180.825 0-327.938 147.112-327.938 327.938S275.325 841.575 456.15 841.575c69.765 0 136.365-21.606 192.597-62.482l37.631 51.768c-67.241 48.878-146.854 74.714-230.228 74.714z"  /><path fill="#ffffff" d="M803.687 627.399c-8.189 0-16.379-3.124-22.627-9.373L663.591 500.559c-12.497-12.497-12.497-32.758 0-45.255 12.496-12.497 32.758-12.497 45.254 0l117.469 117.468c12.497 12.497 12.497 32.759 0 45.255-6.249 6.248-14.438 9.372-22.627 9.372z"  /><path fill="#ffffff" d="M810.436 629.473c-8.19 0-16.378-3.123-22.627-9.373-12.497-12.496-12.497-32.758 0-45.255l117.469-117.468c12.495-12.497 32.757-12.497 45.254 0s12.497 32.758 0 45.255L833.063 620.1c-6.248 6.248-14.439 9.373-22.627 9.373z"  /></svg>