<?xml version="1.0" standalone="no"?><!DOCTYPE svg PUBLIC "-//W3C//DTD SVG 1.1//EN" "http://www.w3.org/Graphics/SVG/1.1/DTD/svg11.dtd"><svg class="icon" width="32px" height="32.00px" viewBox="0 0 1024 1024" version="1.1" xmlns="http://www.w3.org/2000/svg"><path fill="#ffffff" d="M738.363 872.258l0-132.941c129.893-31.589 215.579-135.843 215.579-265.622l0-49.813c0-150.187-125.409-272.377-279.591-272.377l-303.133 0c-154.154 0-279.591 122.19-279.591 272.377l0 49.813c0 156.625 128.026 288.991 279.591 288.991l81.518 0 245.731 132.912c4.025 2.156 8.508 3.248 12.934 3.248 4.771 0 9.515-1.236 13.769-3.708 8.192-4.771 13.194-13.481 13.194-22.88zM706.773 691.574c-12.877 2.213-22.305 13.28-22.305 26.186l0 109.6-211.871-114.573c-3.967-2.156-8.422-3.277-12.963-3.277l-88.416 0c-120.236 0-225.697-110.175-225.697-235.814l0-49.813c0-120.868 101.236-219.23 225.697-219.23l303.133 0c124.461 0 225.697 98.362 225.697 219.23l0 49.813c0 112.101-75.855 197.643-193.274 217.878z" /></svg>